<?xml version="1.0" encoding="UTF-8" standalone="no"?>
<!DOCTYPE svg PUBLIC "-//W3C//DTD SVG 1.1//EN" "http://www.w3.org/Graphics/SVG/1.1/DTD/svg11.dtd">
<!-- Created with Vectornator (http://vectornator.io/) -->
<svg height="100%" stroke-miterlimit="10" style="fill-rule:nonzero;clip-rule:evenodd;stroke-linecap:round;stroke-linejoin:round;" version="1.1" viewBox="0 0 1024 1024" width="100%" xml:space="preserve" xmlns="http://www.w3.org/2000/svg" xmlns:xlink="http://www.w3.org/1999/xlink">
<defs/>
<g id="レイヤー-1">
<g opacity="1">
<path d="M231.878 48.4304L231.878 48.4304C325.671 48.4304 401.705 124.465 401.705 218.258L401.705 781.015C401.705 874.808 325.671 950.843 231.878 950.843L231.878 950.843C138.085 950.843 62.0504 874.808 62.0504 781.015L62.0504 218.258C62.0504 124.465 138.085 48.4304 231.878 48.4304Z" fill="#ffb366" fill-rule="nonzero" opacity="1" stroke="none"/>
<g opacity="1">
<path d="M355.844 219.112L355.844 219.112C375.808 219.112 391.991 235.499 391.991 255.714L391.991 762.259C391.991 782.473 375.808 798.861 355.844 798.861L355.844 798.861C335.881 798.861 319.697 782.473 319.697 762.259L319.697 255.714C319.697 235.499 335.881 219.112 355.844 219.112Z" fill="#e6a15c" fill-rule="nonzero" opacity="1" stroke="#b37d47" stroke-linecap="butt" stroke-linejoin="round" stroke-width="10"/>
<path d="M283.55 147.936L283.55 147.936C303.513 147.936 319.697 164.323 319.697 184.538L319.697 691.083C319.697 711.298 303.513 727.685 283.55 727.685L283.55 727.685C263.586 727.685 247.403 711.298 247.403 691.083L247.403 184.538C247.403 164.323 263.586 147.936 283.55 147.936Z" fill="#e6a15c" fill-rule="nonzero" opacity="1" stroke="#b37d47" stroke-linecap="butt" stroke-linejoin="round" stroke-width="10"/>
<path d="M211.256 75.9886L211.256 75.9886C231.219 75.9886 247.403 92.3759 247.403 112.591L247.403 619.135C247.403 639.35 231.219 655.737 211.256 655.737L211.256 655.737C191.292 655.737 175.109 639.35 175.109 619.135L175.109 112.591C175.109 92.3759 191.292 75.9886 211.256 75.9886Z" fill="#e6a15c" fill-rule="nonzero" opacity="1" stroke="#b37d47" stroke-linecap="butt" stroke-linejoin="round" stroke-width="10"/>
</g>
<g opacity="1">
<path d="M278.345 465.344L260.333 454.944L260.333 434.145L278.345 423.745L296.358 434.145L296.358 454.944L278.345 465.344Z" fill="#5ce68a" fill-rule="nonzero" opacity="1" stroke="#66cc99" stroke-linecap="butt" stroke-linejoin="round" stroke-width="10"/>
<path d="M300.484 435.506L282.472 425.106L282.472 404.307L300.484 393.908L318.497 404.307L318.497 425.106L300.484 435.506Z" fill="#5ce68a" fill-rule="nonzero" opacity="1" stroke="#66cc99" stroke-linecap="butt" stroke-linejoin="round" stroke-width="10"/>
<path d="M278.224 402.589L260.212 392.19L260.212 371.391L278.224 360.991L296.237 371.391L296.237 392.19L278.224 402.589Z" fill="#5ce68a" fill-rule="nonzero" opacity="1" stroke="#66cc99" stroke-linecap="butt" stroke-linejoin="round" stroke-width="10"/>
<path d="M300.484 368.963L282.472 358.563L282.472 337.764L300.484 327.365L318.497 337.764L318.497 358.563L300.484 368.963Z" fill="#5ce68a" fill-rule="nonzero" opacity="1" stroke="#66cc99" stroke-linecap="butt" stroke-linejoin="round" stroke-width="10"/>
<path d="M279.172 336.142L261.159 325.743L261.159 304.944L279.172 294.544L297.184 304.944L297.184 325.743L279.172 336.142Z" fill="#5ce68a" fill-rule="nonzero" opacity="1" stroke="#66cc99" stroke-linecap="butt" stroke-linejoin="round" stroke-width="10"/>
<path d="M237.614 464.87L219.602 454.47L219.602 433.671L237.614 423.272L255.627 433.671L255.627 454.47L237.614 464.87Z" fill="#5ce68a" fill-rule="nonzero" opacity="1" stroke="#66cc99" stroke-linecap="butt" stroke-linejoin="round" stroke-width="10"/>
<path d="M259.753 435.032L241.741 424.633L241.741 403.834L259.753 393.434L277.766 403.834L277.766 424.633L259.753 435.032Z" fill="#5ce68a" fill-rule="nonzero" opacity="1" stroke="#66cc99" stroke-linecap="butt" stroke-linejoin="round" stroke-width="10"/>
<path d="M237.493 402.116L219.481 391.716L219.481 370.917L237.493 360.518L255.506 370.917L255.506 391.716L237.493 402.116Z" fill="#5ce68a" fill-rule="nonzero" opacity="1" stroke="#66cc99" stroke-linecap="butt" stroke-linejoin="round" stroke-width="10"/>
<path d="M259.753 368.489L241.741 358.09L241.741 337.291L259.753 326.891L277.766 337.291L277.766 358.09L259.753 368.489Z" fill="#5ce68a" fill-rule="nonzero" opacity="1" stroke="#66cc99" stroke-linecap="butt" stroke-linejoin="round" stroke-width="10"/>
<path d="M238.441 335.669L220.428 325.269L220.428 304.47L238.441 294.071L256.453 304.47L256.453 325.269L238.441 335.669Z" fill="#5ce68a" fill-rule="nonzero" opacity="1" stroke="#66cc99" stroke-linecap="butt" stroke-linejoin="round" stroke-width="10"/>
<path d="M259.753 302.989L241.741 292.59L241.741 271.791L259.753 261.391L277.766 271.791L277.766 292.59L259.753 302.989Z" fill="#5ce68a" fill-rule="nonzero" opacity="1" stroke="#66cc99" stroke-linecap="butt" stroke-linejoin="round" stroke-width="10"/>
<path d="M196.883 464.396L178.871 453.997L178.871 433.198L196.883 422.798L214.896 433.198L214.896 453.997L196.883 464.396Z" fill="#5ce68a" fill-rule="nonzero" opacity="1" stroke="#66cc99" stroke-linecap="butt" stroke-linejoin="round" stroke-width="10"/>
<path d="M219.022 434.558L201.01 424.159L201.01 403.36L219.022 392.96L237.035 403.36L237.035 424.159L219.022 434.558Z" fill="#5ce68a" fill-rule="nonzero" opacity="1" stroke="#66cc99" stroke-linecap="butt" stroke-linejoin="round" stroke-width="10"/>
<path d="M196.762 401.642L178.75 391.243L178.75 370.444L196.762 360.044L214.775 370.444L214.775 391.243L196.762 401.642Z" fill="#5ce68a" fill-rule="nonzero" opacity="1" stroke="#66cc99" stroke-linecap="butt" stroke-linejoin="round" stroke-width="10"/>
<path d="M219.022 368.015L201.01 357.616L201.01 336.817L219.022 326.417L237.035 336.817L237.035 357.616L219.022 368.015Z" fill="#5ce68a" fill-rule="nonzero" opacity="1" stroke="#66cc99" stroke-linecap="butt" stroke-linejoin="round" stroke-width="10"/>
<path d="M197.71 335.195L179.697 324.796L179.697 303.997L197.71 293.597L215.722 303.997L215.722 324.796L197.71 335.195Z" fill="#5ce68a" fill-rule="nonzero" opacity="1" stroke="#66cc99" stroke-linecap="butt" stroke-linejoin="round" stroke-width="10"/>
<path d="M219.022 302.516L201.01 292.116L201.01 271.317L219.022 260.918L237.035 271.317L237.035 292.116L219.022 302.516Z" fill="#5ce68a" fill-rule="nonzero" opacity="1" stroke="#66cc99" stroke-linecap="butt" stroke-linejoin="round" stroke-width="10"/>
<path d="M196.762 268.748L178.75 258.349L178.75 237.55L196.762 227.15L214.775 237.55L214.775 258.349L196.762 268.748Z" fill="#5ce68a" fill-rule="nonzero" opacity="1" stroke="#66cc99" stroke-linecap="butt" stroke-linejoin="round" stroke-width="10"/>
<path d="M156.152 463.923L138.14 453.523L138.14 432.724L156.152 422.325L174.165 432.724L174.165 453.523L156.152 463.923Z" fill="#5ce68a" fill-rule="nonzero" opacity="1" stroke="#66cc99" stroke-linecap="butt" stroke-linejoin="round" stroke-width="10"/>
<path d="M178.291 434.085L160.279 423.685L160.279 402.886L178.291 392.487L196.304 402.886L196.304 423.685L178.291 434.085Z" fill="#5ce68a" fill-rule="nonzero" opacity="1" stroke="#66cc99" stroke-linecap="butt" stroke-linejoin="round" stroke-width="10"/>
<path d="M156.032 401.169L138.019 390.769L138.019 369.97L156.032 359.571L174.044 369.97L174.044 390.769L156.032 401.169Z" fill="#5ce68a" fill-rule="nonzero" opacity="1" stroke="#66cc99" stroke-linecap="butt" stroke-linejoin="round" stroke-width="10"/>
<path d="M178.291 367.542L160.279 357.142L160.279 336.343L178.291 325.944L196.304 336.343L196.304 357.142L178.291 367.542Z" fill="#5ce68a" fill-rule="nonzero" opacity="1" stroke="#66cc99" stroke-linecap="butt" stroke-linejoin="round" stroke-width="10"/>
<path d="M156.979 334.721L138.966 324.322L138.966 303.523L156.979 293.123L174.991 303.523L174.991 324.322L156.979 334.721Z" fill="#5ce68a" fill-rule="nonzero" opacity="1" stroke="#66cc99" stroke-linecap="butt" stroke-linejoin="round" stroke-width="10"/>
<path d="M178.291 302.042L160.279 291.643L160.279 270.843L178.291 260.444L196.304 270.843L196.304 291.643L178.291 302.042Z" fill="#5ce68a" fill-rule="nonzero" opacity="1" stroke="#66cc99" stroke-linecap="butt" stroke-linejoin="round" stroke-width="10"/>
<path d="M156.032 268.274L138.019 257.875L138.019 237.076L156.032 226.676L174.044 237.076L174.044 257.875L156.032 268.274Z" fill="#5ce68a" fill-rule="nonzero" opacity="1" stroke="#66cc99" stroke-linecap="butt" stroke-linejoin="round" stroke-width="10"/>
<path d="M178.291 241.408L160.279 231.009L160.279 210.21L178.291 199.81L196.304 210.21L196.304 231.009L178.291 241.408Z" fill="#5ce68a" fill-rule="nonzero" opacity="1" stroke="#66cc99" stroke-linecap="butt" stroke-linejoin="round" stroke-width="10"/>
<path d="M156.979 207.546L138.966 197.146L138.966 176.347L156.979 165.948L174.991 176.347L174.991 197.146L156.979 207.546Z" fill="#5ce68a" fill-rule="nonzero" opacity="1" stroke="#66cc99" stroke-linecap="butt" stroke-linejoin="round" stroke-width="10"/>
<path d="M115.421 463.449L97.409 453.05L97.409 432.251L115.421 421.851L133.434 432.251L133.434 453.05L115.421 463.449Z" fill="#5ce68a" fill-rule="nonzero" opacity="1" stroke="#66cc99" stroke-linecap="butt" stroke-linejoin="round" stroke-width="10"/>
<path d="M137.561 433.611L119.548 423.212L119.548 402.413L137.561 392.013L155.573 402.413L155.573 423.212L137.561 433.611Z" fill="#5ce68a" fill-rule="nonzero" opacity="1" stroke="#66cc99" stroke-linecap="butt" stroke-linejoin="round" stroke-width="10"/>
<path d="M115.301 400.695L97.2881 390.295L97.2881 369.496L115.301 359.097L133.313 369.496L133.313 390.295L115.301 400.695Z" fill="#5ce68a" fill-rule="nonzero" opacity="1" stroke="#66cc99" stroke-linecap="butt" stroke-linejoin="round" stroke-width="10"/>
<path d="M137.561 367.068L119.548 356.669L119.548 335.87L137.561 325.47L155.573 335.87L155.573 356.669L137.561 367.068Z" fill="#5ce68a" fill-rule="nonzero" opacity="1" stroke="#66cc99" stroke-linecap="butt" stroke-linejoin="round" stroke-width="10"/>
<path d="M116.248 334.248L98.2353 323.848L98.2353 303.049L116.248 292.65L134.26 303.049L134.26 323.848L116.248 334.248Z" fill="#5ce68a" fill-rule="nonzero" opacity="1" stroke="#66cc99" stroke-linecap="butt" stroke-linejoin="round" stroke-width="10"/>
<path d="M137.561 301.568L119.548 291.169L119.548 270.37L137.561 259.97L155.573 270.37L155.573 291.169L137.561 301.568Z" fill="#5ce68a" fill-rule="nonzero" opacity="1" stroke="#66cc99" stroke-linecap="butt" stroke-linejoin="round" stroke-width="10"/>
<path d="M115.301 267.801L97.2881 257.401L97.2881 236.602L115.301 226.203L133.313 236.602L133.313 257.401L115.301 267.801Z" fill="#5ce68a" fill-rule="nonzero" opacity="1" stroke="#66cc99" stroke-linecap="butt" stroke-linejoin="round" stroke-width="10"/>
<path d="M137.561 240.935L119.548 230.535L119.548 209.736L137.561 199.337L155.573 209.736L155.573 230.535L137.561 240.935Z" fill="#5ce68a" fill-rule="nonzero" opacity="1" stroke="#66cc99" stroke-linecap="butt" stroke-linejoin="round" stroke-width="10"/>
<path d="M116.248 207.072L98.2353 196.672L98.2353 175.873L116.248 165.474L134.26 175.873L134.26 196.672L116.248 207.072Z" fill="#5ce68a" fill-rule="nonzero" opacity="1" stroke="#66cc99" stroke-linecap="butt" stroke-linejoin="round" stroke-width="10"/>
<path d="M96.8296 433.138L78.8171 422.738L78.8171 401.939L96.8296 391.54L114.842 401.939L114.842 422.738L96.8296 433.138Z" fill="#5ce68a" fill-rule="nonzero" opacity="1" stroke="#66cc99" stroke-linecap="butt" stroke-linejoin="round" stroke-width="10"/>
<path d="M96.8296 366.595L78.8171 356.195L78.8171 335.396L96.8296 324.997L114.842 335.396L114.842 356.195L96.8296 366.595Z" fill="#5ce68a" fill-rule="nonzero" opacity="1" stroke="#66cc99" stroke-linecap="butt" stroke-linejoin="round" stroke-width="10"/>
<path d="M96.8296 301.095L78.8171 290.695L78.8171 269.896L96.8296 259.497L114.842 269.896L114.842 290.695L96.8296 301.095Z" fill="#5ce68a" fill-rule="nonzero" opacity="1" stroke="#66cc99" stroke-linecap="butt" stroke-linejoin="round" stroke-width="10"/>
<path d="M96.8296 240.461L78.8171 230.061L78.8171 209.262L96.8296 198.863L114.842 209.262L114.842 230.061L96.8296 240.461Z" fill="#5ce68a" fill-rule="nonzero" opacity="1" stroke="#66cc99" stroke-linecap="butt" stroke-linejoin="round" stroke-width="10"/>
</g>
<g opacity="1">
<path d="M92.0504 491.195L371.705 491.195C388.274 491.195 401.705 504.627 401.705 521.195L401.705 920.383C401.705 936.952 388.274 950.383 371.705 950.383L92.0504 950.383C75.4818 950.383 62.0504 936.952 62.0504 920.383L62.0504 521.195C62.0504 504.627 75.4818 491.195 92.0504 491.195Z" fill="#66cc99" fill-rule="nonzero" opacity="1" stroke="none"/>
<path d="M62.0504 491.195L401.705 491.195L401.705 568.359L62.0504 568.359L62.0504 491.195Z" fill="#66cc99" fill-rule="nonzero" opacity="1" stroke="none"/>
</g>
<g opacity="1">
<path d="M316.811 226.159L322.651 231.999C328.849 238.196 327.844 249.25 320.406 256.688L177.634 399.46C170.197 406.897 159.143 407.902 152.945 401.704L147.105 395.864C140.908 389.667 141.912 378.613 149.35 371.175L292.122 228.403C299.56 220.966 310.613 219.961 316.811 226.159Z" fill="#e6735c" fill-rule="nonzero" opacity="1" stroke="none"/>
<path d="M255.168 161.189L261.007 167.029C267.205 173.227 266.2 184.28 258.763 191.718L115.991 334.49C108.553 341.927 97.4995 342.932 91.3016 336.734L85.462 330.895C79.2641 324.697 80.2689 313.643 87.7064 306.206L230.479 163.433C237.916 155.996 248.97 154.991 255.168 161.189Z" fill="#e6735c" fill-rule="nonzero" opacity="1" stroke="none"/>
</g>
<path d="M62.0504 341.34L212.05 491.34L62.0504 491.34L62.0504 341.34Z" fill="#ffb366" fill-rule="nonzero" opacity="1" stroke="none"/>
<path d="M401.705 215.633L127.225 490.113L401.705 490.113L401.705 215.633Z" fill="#ffb366" fill-rule="nonzero" opacity="1" stroke="none"/>
</g>
<path d="M585.426 571.164C585.426 571.164 750.547 555.593 846.239 654.149C941.931 752.704 980.307 875.338 931.957 928.062C883.606 980.786 766.838 943.634 671.146 845.079C575.453 746.524 585.426 571.164 585.426 571.164Z" fill="#5ce68a" fill-rule="nonzero" opacity="1" stroke="none"/>
<path d="M585.426 571.164C585.426 571.164 750.547 555.593 846.239 654.149C941.931 752.704 980.307 875.338 931.957 928.062C883.606 980.786 766.838 943.634 671.146 845.079C575.453 746.524 585.426 571.164 585.426 571.164Z" fill="#5ce68a" fill-rule="nonzero" opacity="1" stroke="none"/>
<path d="M835.965 826.852L776.349 842.267" fill="none" opacity="1" stroke="#e6f2ec" stroke-linecap="round" stroke-linejoin="round" stroke-width="10"/>
<path d="M836.774 825.986L849.612 762.393" fill="none" opacity="1" stroke="#e6f2ec" stroke-linecap="round" stroke-linejoin="round" stroke-width="10"/>
<path d="M764.712 756.71L705.096 772.125" fill="none" opacity="1" stroke="#e6f2ec" stroke-linecap="round" stroke-linejoin="round" stroke-width="10"/>
<path d="M767.232 754.587L780.07 690.994" fill="none" opacity="1" stroke="#e6f2ec" stroke-linecap="round" stroke-linejoin="round" stroke-width="10"/>
<path d="M695.435 684.945L635.818 700.36" fill="none" opacity="1" stroke="#e6f2ec" stroke-linecap="round" stroke-linejoin="round" stroke-width="10"/>
<path d="M696.692 684.578L709.53 620.985" fill="none" opacity="1" stroke="#e6f2ec" stroke-linecap="round" stroke-linejoin="round" stroke-width="10"/>
<path d="M587.025 572.841L932.662 924.631" fill="none" opacity="1" stroke="#e6f2ec" stroke-linecap="round" stroke-linejoin="round" stroke-width="10"/>
<path d="M401.321 318.909C401.321 174.051 526.656 56.6206 681.264 56.6206C835.873 56.6206 961.208 174.051 961.208 318.909C961.208 463.767 835.873 581.197 681.264 581.197C526.656 581.197 401.321 463.767 401.321 318.909Z" fill="#ffffff" fill-rule="nonzero" opacity="1" stroke="#171a18" stroke-linecap="butt" stroke-linejoin="round" stroke-width="10"/>
<g opacity="1">
<path d="M650.602 342.861L632.59 332.462L632.59 311.663L650.602 301.263L668.615 311.663L668.615 332.462L650.602 342.861Z" fill="#ffb366" fill-rule="nonzero" opacity="1" stroke="#b37d47" stroke-linecap="butt" stroke-linejoin="round" stroke-width="10"/>
<path d="M650.602 342.861L632.59 332.462L632.59 311.663L650.602 301.263L668.615 311.663L668.615 332.462L650.602 342.861Z" fill="#ffb366" fill-rule="nonzero" opacity="1" stroke="#b37d47" stroke-linecap="butt" stroke-linejoin="round" stroke-width="10"/>
<path d="M650.358 299.604L653.81 279.093L673.298 271.827L689.335 285.071L685.884 305.582L666.395 312.848L650.358 299.604Z" fill="#ffb366" fill-rule="nonzero" opacity="1" stroke="#b37d47" stroke-linecap="butt" stroke-linejoin="round" stroke-width="10"/>
<path d="M693.957 285.196L714.645 283.048L726.849 299.89L718.366 318.88L697.678 321.028L685.473 304.186L693.957 285.196Z" fill="#ffb366" fill-rule="nonzero" opacity="1" stroke="#b37d47" stroke-linecap="butt" stroke-linejoin="round" stroke-width="10"/>
<path d="M719.549 321.281L728.195 340.198L716.135 357.144L695.43 355.173L686.784 336.256L698.843 319.31L719.549 321.281Z" fill="#ffb366" fill-rule="nonzero" opacity="1" stroke="#b37d47" stroke-linecap="butt" stroke-linejoin="round" stroke-width="10"/>
<path d="M692.449 357.401L676.867 371.178L657.145 364.572L653.005 344.189L668.587 330.413L688.309 337.019L692.449 357.401Z" fill="#ffb366" fill-rule="nonzero" opacity="1" stroke="#b37d47" stroke-linecap="butt" stroke-linejoin="round" stroke-width="10"/>
</g>
<path d="M681.628 336.208L663.616 325.808L663.616 305.009L681.628 294.61L699.641 305.009L699.641 325.808L681.628 336.208Z" fill="#ffb366" fill-rule="nonzero" opacity="1" stroke="#b37d47" stroke-linecap="butt" stroke-linejoin="round" stroke-width="10"/>
<g opacity="1">
<path d="M620.876 336.208L602.863 325.808L602.863 305.009L620.876 294.61L638.888 305.009L638.888 325.808L620.876 336.208Z" fill="#ffb366" fill-rule="nonzero" opacity="1" stroke="#b37d47" stroke-linecap="butt" stroke-linejoin="round" stroke-width="10"/>
<path d="M623.018 295.547L615.1 276.314L627.797 259.84L648.412 262.599L656.33 281.832L643.633 298.306L623.018 295.547Z" fill="#ffb366" fill-rule="nonzero" opacity="1" stroke="#b37d47" stroke-linecap="butt" stroke-linejoin="round" stroke-width="10"/>
<path d="M649.269 264.808L654.639 244.714L674.726 239.318L689.443 254.016L684.072 274.11L663.985 279.505L649.269 264.808Z" fill="#ffb366" fill-rule="nonzero" opacity="1" stroke="#b37d47" stroke-linecap="butt" stroke-linejoin="round" stroke-width="10"/>
<path d="M690.04 256.447L706.749 244.062L725.83 252.34L728.202 273.003L711.492 285.389L692.412 277.111L690.04 256.447Z" fill="#ffb366" fill-rule="nonzero" opacity="1" stroke="#b37d47" stroke-linecap="butt" stroke-linejoin="round" stroke-width="10"/>
<path d="M726.7 274.809L747.494 275.298L757.467 293.55L746.646 311.313L725.853 310.824L715.88 292.572L726.7 274.809Z" fill="#ffb366" fill-rule="nonzero" opacity="1" stroke="#b37d47" stroke-linecap="butt" stroke-linejoin="round" stroke-width="10"/>
<path d="M743.57 306.797L760.684 318.617L759.004 339.348L740.211 348.259L723.097 336.439L724.776 315.708L743.57 306.797Z" fill="#ffb366" fill-rule="nonzero" opacity="1" stroke="#b37d47" stroke-linecap="butt" stroke-linejoin="round" stroke-width="10"/>
<path d="M738.959 345.468L745.881 365.081L732.356 380.883L711.91 377.071L704.987 357.458L718.512 341.656L738.959 345.468Z" fill="#ffb366" fill-rule="nonzero" opacity="1" stroke="#b37d47" stroke-linecap="butt" stroke-linejoin="round" stroke-width="10"/>
<path d="M712.459 374.118L706.529 394.054L686.299 398.886L671.999 383.783L677.929 363.847L698.159 359.015L712.459 374.118Z" fill="#ffb366" fill-rule="nonzero" opacity="1" stroke="#b37d47" stroke-linecap="butt" stroke-linejoin="round" stroke-width="10"/>
<path d="M674.726 381.779L658.32 394.564L639.045 386.748L636.176 366.148L652.582 353.363L671.857 361.179L674.726 381.779Z" fill="#ffb366" fill-rule="nonzero" opacity="1" stroke="#b37d47" stroke-linecap="butt" stroke-linejoin="round" stroke-width="10"/>
<path d="M641.543 367.801L620.817 369.538L608.949 352.458L617.807 333.639L638.534 331.902L650.402 348.982L641.543 367.801Z" fill="#ffb366" fill-rule="nonzero" opacity="1" stroke="#b37d47" stroke-linecap="butt" stroke-linejoin="round" stroke-width="10"/>
</g>
<g opacity="1">
<path d="M593.259 331.67L575.247 321.271L575.247 300.472L593.259 290.072L611.271 300.472L611.271 321.271L593.259 331.67Z" fill="#ffb366" fill-rule="nonzero" opacity="1" stroke="#b37d47" stroke-linecap="butt" stroke-linejoin="round" stroke-width="10"/>
<path d="M593.538 297.702L580.693 281.344L588.437 262.04L609.027 259.095L621.872 275.454L614.128 294.757L593.538 297.702Z" fill="#ffb366" fill-rule="nonzero" opacity="1" stroke="#b37d47" stroke-linecap="butt" stroke-linejoin="round" stroke-width="10"/>
<path d="M605.271 268.118L598.957 248.3L612.961 232.923L633.281 237.363L639.596 257.18L625.591 272.557L605.271 268.118Z" fill="#ffb366" fill-rule="nonzero" opacity="1" stroke="#b37d47" stroke-linecap="butt" stroke-linejoin="round" stroke-width="10"/>
<path d="M624.941 245.822L625.46 225.029L643.727 215.083L661.474 225.929L660.955 246.721L642.688 256.668L624.941 245.822Z" fill="#ffb366" fill-rule="nonzero" opacity="1" stroke="#b37d47" stroke-linecap="butt" stroke-linejoin="round" stroke-width="10"/>
<path d="M652.143 230.726L659.743 211.365L680.31 208.266L693.277 224.528L685.677 243.889L665.11 246.988L652.143 230.726Z" fill="#ffb366" fill-rule="nonzero" opacity="1" stroke="#b37d47" stroke-linecap="butt" stroke-linejoin="round" stroke-width="10"/>
<path d="M684.675 225.893L698.75 210.58L719.049 215.112L725.273 234.958L711.198 250.272L690.899 245.739L684.675 225.893Z" fill="#ffb366" fill-rule="nonzero" opacity="1" stroke="#b37d47" stroke-linecap="butt" stroke-linejoin="round" stroke-width="10"/>
<path d="M718.039 233.69L736.834 224.782L753.946 236.604L752.264 257.335L733.469 266.243L716.357 254.421L718.039 233.69Z" fill="#ffb366" fill-rule="nonzero" opacity="1" stroke="#b37d47" stroke-linecap="butt" stroke-linejoin="round" stroke-width="10"/>
<path d="M746.085 253.496L766.851 252.311L778.259 269.703L768.901 288.278L748.136 289.462L736.728 272.071L746.085 253.496Z" fill="#ffb366" fill-rule="nonzero" opacity="1" stroke="#b37d47" stroke-linecap="butt" stroke-linejoin="round" stroke-width="10"/>
<path d="M764.768 282.769L784.423 289.572L788.359 309.995L772.641 323.615L752.985 316.813L749.049 296.39L764.768 282.769Z" fill="#ffb366" fill-rule="nonzero" opacity="1" stroke="#b37d47" stroke-linecap="butt" stroke-linejoin="round" stroke-width="10"/>
<path d="M770.864 318.736L786.177 332.811L781.644 353.111L761.798 359.334L746.485 345.259L751.018 324.96L770.864 318.736Z" fill="#ffb366" fill-rule="nonzero" opacity="1" stroke="#b37d47" stroke-linecap="butt" stroke-linejoin="round" stroke-width="10"/>
<path d="M762.182 354.01L770.647 373.008L758.426 389.838L737.74 387.67L729.275 368.671L741.497 351.841L762.182 354.01Z" fill="#ffb366" fill-rule="nonzero" opacity="1" stroke="#b37d47" stroke-linecap="butt" stroke-linejoin="round" stroke-width="10"/>
<path d="M740.672 382.527L741.04 403.323L723.214 414.039L705.021 403.96L704.653 383.164L722.479 372.447L740.672 382.527Z" fill="#ffb366" fill-rule="nonzero" opacity="1" stroke="#b37d47" stroke-linecap="butt" stroke-linejoin="round" stroke-width="10"/>
<path d="M710.579 400.083L702.985 419.446L682.419 422.551L669.447 406.294L677.041 386.93L697.607 383.825L710.579 400.083Z" fill="#ffb366" fill-rule="nonzero" opacity="1" stroke="#b37d47" stroke-linecap="butt" stroke-linejoin="round" stroke-width="10"/>
<path d="M674.875 404.752L660.27 419.561L640.143 414.317L634.621 394.264L649.226 379.456L669.353 384.7L674.875 404.752Z" fill="#ffb366" fill-rule="nonzero" opacity="1" stroke="#b37d47" stroke-linecap="butt" stroke-linejoin="round" stroke-width="10"/>
<path d="M643.073 396.397L624.108 404.938L607.229 392.785L609.315 372.091L628.279 363.55L645.158 375.703L643.073 396.397Z" fill="#ffb366" fill-rule="nonzero" opacity="1" stroke="#b37d47" stroke-linecap="butt" stroke-linejoin="round" stroke-width="10"/>
<path d="M617.148 377.879L596.394 379.242L584.836 361.95L594.033 343.295L614.787 341.931L626.345 359.224L617.148 377.879Z" fill="#ffb366" fill-rule="nonzero" opacity="1" stroke="#b37d47" stroke-linecap="butt" stroke-linejoin="round" stroke-width="10"/>
<path d="M600.17 353.279L580.122 347.739L574.897 327.607L589.719 313.016L609.766 318.556L614.992 338.688L600.17 353.279Z" fill="#ffb366" fill-rule="nonzero" opacity="1" stroke="#b37d47" stroke-linecap="butt" stroke-linejoin="round" stroke-width="10"/>
</g>
<g opacity="1">
<path d="M529.469 130.392C529.469 140.054 538.879 147.886 550.487 147.886C562.094 147.886 571.504 140.054 571.504 130.392" fill="none" opacity="1" stroke="#e6f2ec" stroke-linecap="butt" stroke-linejoin="round" stroke-width="10"/>
<path d="M529.469 189.968C529.469 199.63 538.879 207.462 550.487 207.462C562.094 207.462 571.504 199.63 571.504 189.968" fill="none" opacity="1" stroke="#e6f2ec" stroke-linecap="butt" stroke-linejoin="round" stroke-width="10"/>
<path d="M616.897 130.392C616.897 140.054 626.307 147.886 637.914 147.886C649.522 147.886 658.932 140.054 658.932 130.392" fill="none" opacity="1" stroke="#e6f2ec" stroke-linecap="butt" stroke-linejoin="round" stroke-width="10"/>
<path d="M704.325 130.392C704.325 140.054 713.734 147.886 725.342 147.886C736.95 147.886 746.359 140.054 746.359 130.392" fill="none" opacity="1" stroke="#e6f2ec" stroke-linecap="butt" stroke-linejoin="round" stroke-width="10"/>
<path d="M791.752 130.392C791.752 140.054 801.162 147.886 812.77 147.886C824.377 147.886 833.787 140.054 833.787 130.392" fill="none" opacity="1" stroke="#e6f2ec" stroke-linecap="butt" stroke-linejoin="round" stroke-width="10"/>
<path d="M791.752 189.968C791.752 199.63 801.162 207.462 812.77 207.462C824.377 207.462 833.787 199.63 833.787 189.968" fill="none" opacity="1" stroke="#e6f2ec" stroke-linecap="butt" stroke-linejoin="round" stroke-width="10"/>
<path d="M442.042 249.544C442.042 259.206 451.451 267.038 463.059 267.038C474.666 267.038 484.076 259.206 484.076 249.544" fill="none" opacity="1" stroke="#e6f2ec" stroke-linecap="butt" stroke-linejoin="round" stroke-width="10"/>
<path d="M529.469 249.544C529.469 259.206 538.879 267.038 550.487 267.038C562.094 267.038 571.504 259.206 571.504 249.544" fill="none" opacity="1" stroke="#e6f2ec" stroke-linecap="butt" stroke-linejoin="round" stroke-width="10"/>
<path d="M791.752 249.544C791.752 259.206 801.162 267.038 812.77 267.038C824.377 267.038 833.787 259.206 833.787 249.544" fill="none" opacity="1" stroke="#e6f2ec" stroke-linecap="butt" stroke-linejoin="round" stroke-width="10"/>
<path d="M879.18 249.544C879.18 259.206 888.59 267.038 900.197 267.038C911.805 267.038 921.215 259.206 921.215 249.544" fill="none" opacity="1" stroke="#e6f2ec" stroke-linecap="butt" stroke-linejoin="round" stroke-width="10"/>
<path d="M442.042 309.12C442.042 318.782 451.451 326.614 463.059 326.614C474.666 326.614 484.076 318.782 484.076 309.12" fill="none" opacity="1" stroke="#e6f2ec" stroke-linecap="butt" stroke-linejoin="round" stroke-width="10"/>
<path d="M529.469 309.12C529.469 318.782 538.879 326.614 550.487 326.614C562.094 326.614 571.504 318.782 571.504 309.12" fill="none" opacity="1" stroke="#e6f2ec" stroke-linecap="butt" stroke-linejoin="round" stroke-width="10"/>
<path d="M791.752 309.12C791.752 318.782 801.162 326.614 812.77 326.614C824.377 326.614 833.787 318.782 833.787 309.12" fill="none" opacity="1" stroke="#e6f2ec" stroke-linecap="butt" stroke-linejoin="round" stroke-width="10"/>
<path d="M879.18 309.12C879.18 318.782 888.59 326.614 900.197 326.614C911.805 326.614 921.215 318.782 921.215 309.12" fill="none" opacity="1" stroke="#e6f2ec" stroke-linecap="butt" stroke-linejoin="round" stroke-width="10"/>
<path d="M442.042 368.696C442.042 378.358 451.451 386.19 463.059 386.19C474.666 386.19 484.076 378.358 484.076 368.696" fill="none" opacity="1" stroke="#e6f2ec" stroke-linecap="butt" stroke-linejoin="round" stroke-width="10"/>
<path d="M529.469 368.696C529.469 378.358 538.879 386.19 550.487 386.19C562.094 386.19 571.504 378.358 571.504 368.696" fill="none" opacity="1" stroke="#e6f2ec" stroke-linecap="butt" stroke-linejoin="round" stroke-width="10"/>
<path d="M791.752 368.696C791.752 378.358 801.162 386.19 812.77 386.19C824.377 386.19 833.787 378.358 833.787 368.696" fill="none" opacity="1" stroke="#e6f2ec" stroke-linecap="butt" stroke-linejoin="round" stroke-width="10"/>
<path d="M879.18 368.696C879.18 378.358 888.59 386.19 900.197 386.19C911.805 386.19 921.215 378.358 921.215 368.696" fill="none" opacity="1" stroke="#e6f2ec" stroke-linecap="butt" stroke-linejoin="round" stroke-width="10"/>
<path d="M529.469 428.272C529.469 437.933 538.879 445.766 550.487 445.766C562.094 445.766 571.504 437.933 571.504 428.272" fill="none" opacity="1" stroke="#e6f2ec" stroke-linecap="butt" stroke-linejoin="round" stroke-width="10"/>
<path d="M616.897 428.272C616.897 437.933 626.307 445.766 637.914 445.766C649.522 445.766 658.932 437.933 658.932 428.272" fill="none" opacity="1" stroke="#e6f2ec" stroke-linecap="butt" stroke-linejoin="round" stroke-width="10"/>
<path d="M704.325 428.272C704.325 437.933 713.734 445.766 725.342 445.766C736.95 445.766 746.359 437.933 746.359 428.272" fill="none" opacity="1" stroke="#e6f2ec" stroke-linecap="butt" stroke-linejoin="round" stroke-width="10"/>
<path d="M791.752 428.272C791.752 437.933 801.162 445.766 812.77 445.766C824.377 445.766 833.787 437.933 833.787 428.272" fill="none" opacity="1" stroke="#e6f2ec" stroke-linecap="butt" stroke-linejoin="round" stroke-width="10"/>
<path d="M529.469 487.848C529.469 497.509 538.879 505.342 550.487 505.342C562.094 505.342 571.504 497.509 571.504 487.848" fill="none" opacity="1" stroke="#e6f2ec" stroke-linecap="butt" stroke-linejoin="round" stroke-width="10"/>
<path d="M616.897 487.848C616.897 497.509 626.307 505.342 637.914 505.342C649.522 505.342 658.932 497.509 658.932 487.848" fill="none" opacity="1" stroke="#e6f2ec" stroke-linecap="butt" stroke-linejoin="round" stroke-width="10"/>
<path d="M704.325 487.848C704.325 497.509 713.734 505.342 725.342 505.342C736.95 505.342 746.359 497.509 746.359 487.848" fill="none" opacity="1" stroke="#e6f2ec" stroke-linecap="butt" stroke-linejoin="round" stroke-width="10"/>
<path d="M791.752 487.848C791.752 497.509 801.162 505.342 812.77 505.342C824.377 505.342 833.787 497.509 833.787 487.848" fill="none" opacity="1" stroke="#e6f2ec" stroke-linecap="butt" stroke-linejoin="round" stroke-width="10"/>
</g>
</g>
</svg>
