<?xml version="1.0" encoding="UTF-8" standalone="no"?>
<!DOCTYPE svg PUBLIC "-//W3C//DTD SVG 1.1//EN" "http://www.w3.org/Graphics/SVG/1.1/DTD/svg11.dtd">
<!-- Created with Vectornator (http://vectornator.io/) -->
<svg height="100%" stroke-miterlimit="10" style="fill-rule:nonzero;clip-rule:evenodd;stroke-linecap:round;stroke-linejoin:round;" version="1.1" viewBox="0 0 1024 1024" width="100%" xml:space="preserve" xmlns="http://www.w3.org/2000/svg" xmlns:xlink="http://www.w3.org/1999/xlink">
<defs/>
<g id="レイヤー-1">
<g opacity="1">
<path d="M63.5259 62.456C63.5259 62.456 466.623 25.6511 700.23 258.614C933.837 491.577 1027.52 781.456 909.486 906.084C791.451 1030.71 506.393 942.894 272.787 709.931C39.18 476.968 63.5259 62.456 63.5259 62.456Z" fill="#5ce68a" fill-rule="nonzero" opacity="1" stroke="none"/>
<path d="M67.43 66.421L911.209 897.975" fill="none" opacity="1" stroke="#e6f2ec" stroke-linecap="round" stroke-linejoin="round" stroke-width="10"/>
<path d="M335.152 330.542L366.492 180.223" fill="none" opacity="1" stroke="#e6f2ec" stroke-linecap="round" stroke-linejoin="round" stroke-width="10"/>
<path d="M332.082 331.41L186.545 367.847" fill="none" opacity="1" stroke="#e6f2ec" stroke-linecap="round" stroke-linejoin="round" stroke-width="10"/>
<path d="M507.355 496.027L538.696 345.708" fill="none" opacity="1" stroke="#e6f2ec" stroke-linecap="round" stroke-linejoin="round" stroke-width="10"/>
<path d="M501.205 501.047L355.668 537.485" fill="none" opacity="1" stroke="#e6f2ec" stroke-linecap="round" stroke-linejoin="round" stroke-width="10"/>
<path d="M677.123 664.8L708.463 514.481" fill="none" opacity="1" stroke="#e6f2ec" stroke-linecap="round" stroke-linejoin="round" stroke-width="10"/>
<path d="M675.149 666.846L529.612 703.283" fill="none" opacity="1" stroke="#e6f2ec" stroke-linecap="round" stroke-linejoin="round" stroke-width="10"/>
</g>
<g opacity="1">
<path d="M230.46 59.1442L230.46 59.1442C324.253 59.1442 400.287 135.179 400.287 228.972L400.287 791.729C400.287 885.522 324.253 961.556 230.46 961.556L230.46 961.556C136.667 961.556 60.6322 885.522 60.6322 791.729L60.6322 228.972C60.6322 135.179 136.667 59.1442 230.46 59.1442Z" fill="#ffb366" fill-rule="nonzero" opacity="1" stroke="none"/>
<g opacity="1">
<path d="M354.426 229.826L354.426 229.826C374.389 229.826 390.573 246.213 390.573 266.428L390.573 772.972C390.573 793.187 374.389 809.575 354.426 809.575L354.426 809.575C334.462 809.575 318.279 793.187 318.279 772.972L318.279 266.428C318.279 246.213 334.462 229.826 354.426 229.826Z" fill="#e6a15c" fill-rule="nonzero" opacity="1" stroke="#b37d47" stroke-linecap="butt" stroke-linejoin="round" stroke-width="10.7515"/>
<path d="M282.132 158.65L282.132 158.65C302.095 158.65 318.279 175.037 318.279 195.252L318.279 701.796C318.279 722.011 302.095 738.399 282.132 738.399L282.132 738.399C262.168 738.399 245.985 722.011 245.985 701.796L245.985 195.252C245.985 175.037 262.168 158.65 282.132 158.65Z" fill="#e6a15c" fill-rule="nonzero" opacity="1" stroke="#b37d47" stroke-linecap="butt" stroke-linejoin="round" stroke-width="10.7515"/>
<path d="M209.838 86.7023L209.838 86.7023C229.801 86.7023 245.985 103.09 245.985 123.304L245.985 629.849C245.985 650.064 229.801 666.451 209.838 666.451L209.838 666.451C189.874 666.451 173.691 650.064 173.691 629.849L173.691 123.304C173.691 103.09 189.874 86.7023 209.838 86.7023Z" fill="#e6a15c" fill-rule="nonzero" opacity="1" stroke="#b37d47" stroke-linecap="butt" stroke-linejoin="round" stroke-width="10.7515"/>
</g>
<g opacity="1">
<g opacity="1">
<path d="M80 372.34C74.4773 372.34 70 376.817 70 382.34L70 445.277C70 448.161 71.2666 450.734 73.2188 452.559L117.469 496.809C121.374 500.714 127.689 500.714 131.594 496.809L143.656 484.777C147.561 480.872 147.561 474.558 143.656 470.652L107.031 433.996L107.031 382.34C107.031 376.817 102.554 372.34 97.0312 372.34L80 372.34Z" fill="#5ce68a" fill-rule="nonzero" opacity="1" stroke="#66cc99" stroke-linecap="round" stroke-linejoin="round" stroke-width="10"/>
</g>
<g opacity="1">
<path d="M80 372.34C74.4773 372.34 70 376.817 70 382.34L70 445.277C70 448.161 71.2666 450.734 73.2188 452.559L117.469 496.809C121.374 500.714 127.689 500.714 131.594 496.809L143.656 484.777C147.561 480.872 147.561 474.558 143.656 470.652L107.031 433.996L107.031 382.34C107.031 376.817 102.554 372.34 97.0312 372.34L80 372.34Z" fill="#5ce68a" fill-rule="nonzero" opacity="1" stroke="#66cc99" stroke-linecap="round" stroke-linejoin="round" stroke-width="10"/>
</g>
<g opacity="1">
<path d="M80 311.078C74.4773 311.078 70 315.555 70 321.078L70 384.015C70 386.898 71.2666 389.471 73.2188 391.296L117.469 435.546C121.374 439.452 127.689 439.452 131.594 435.546L143.656 423.515C147.561 419.61 147.561 413.295 143.656 409.39L107.031 372.734L107.031 321.078C107.031 315.555 102.554 311.078 97.0312 311.078L80 311.078Z" fill="#5ce68a" fill-rule="nonzero" opacity="1" stroke="#66cc99" stroke-linecap="round" stroke-linejoin="round" stroke-width="10"/>
</g>
<g opacity="1">
<path d="M116.473 372.34C110.95 372.34 106.473 376.817 106.473 382.34L106.473 445.277C106.473 448.161 107.74 450.734 109.692 452.559L153.942 496.809C157.847 500.714 164.162 500.714 168.067 496.809L180.129 484.777C184.035 480.872 184.035 474.558 180.129 470.652L143.504 433.996L143.504 382.34C143.504 376.817 139.027 372.34 133.504 372.34L116.473 372.34Z" fill="#5ce68a" fill-rule="nonzero" opacity="1" stroke="#66cc99" stroke-linecap="round" stroke-linejoin="round" stroke-width="10"/>
</g>
<g opacity="1">
<path d="M116.473 311.078C110.95 311.078 106.473 315.555 106.473 321.078L106.473 384.015C106.473 386.898 107.74 389.471 109.692 391.296L153.942 435.546C157.847 439.452 164.162 439.452 168.067 435.546L180.129 423.515C184.035 419.61 184.035 413.295 180.129 409.39L143.504 372.734L143.504 321.078C143.504 315.555 139.027 311.078 133.504 311.078L116.473 311.078Z" fill="#5ce68a" fill-rule="nonzero" opacity="1" stroke="#66cc99" stroke-linecap="round" stroke-linejoin="round" stroke-width="10"/>
</g>
<g opacity="1">
<path d="M152.946 372.34C147.424 372.34 142.946 376.817 142.946 382.34L142.946 445.277C142.946 448.161 144.213 450.734 146.165 452.559L190.415 496.809C194.32 500.714 200.635 500.714 204.54 496.809L216.603 484.777C220.508 480.872 220.508 474.558 216.603 470.652L179.978 433.996L179.978 382.34C179.978 376.817 175.5 372.34 169.978 372.34L152.946 372.34Z" fill="#5ce68a" fill-rule="nonzero" opacity="1" stroke="#66cc99" stroke-linecap="round" stroke-linejoin="round" stroke-width="10"/>
</g>
<g opacity="1">
<path d="M152.946 311.078C147.424 311.078 142.946 315.555 142.946 321.078L142.946 384.015C142.946 386.898 144.213 389.471 146.165 391.296L190.415 435.546C194.32 439.452 200.635 439.452 204.54 435.546L216.603 423.515C220.508 419.61 220.508 413.295 216.603 409.39L179.978 372.734L179.978 321.078C179.978 315.555 175.5 311.078 169.978 311.078L152.946 311.078Z" fill="#5ce68a" fill-rule="nonzero" opacity="1" stroke="#66cc99" stroke-linecap="round" stroke-linejoin="round" stroke-width="10"/>
</g>
<g opacity="1">
<path d="M189.42 372.34C183.897 372.34 179.42 376.817 179.42 382.34L179.42 445.277C179.42 448.161 180.686 450.734 182.638 452.559L226.888 496.809C230.794 500.714 237.108 500.714 241.013 496.809L253.076 484.777C256.981 480.872 256.981 474.558 253.076 470.652L216.451 433.996L216.451 382.34C216.451 376.817 211.974 372.34 206.451 372.34L189.42 372.34Z" fill="#5ce68a" fill-rule="nonzero" opacity="1" stroke="#66cc99" stroke-linecap="round" stroke-linejoin="round" stroke-width="10"/>
</g>
<g opacity="1">
<path d="M189.42 311.078C183.897 311.078 179.42 315.555 179.42 321.078L179.42 384.015C179.42 386.898 180.686 389.471 182.638 391.296L226.888 435.546C230.794 439.452 237.108 439.452 241.013 435.546L253.076 423.515C256.981 419.61 256.981 413.295 253.076 409.39L216.451 372.734L216.451 321.078C216.451 315.555 211.974 311.078 206.451 311.078L189.42 311.078Z" fill="#5ce68a" fill-rule="nonzero" opacity="1" stroke="#66cc99" stroke-linecap="round" stroke-linejoin="round" stroke-width="10"/>
</g>
<g opacity="1">
<path d="M225.893 372.34C220.37 372.34 215.893 376.817 215.893 382.34L215.893 445.277C215.893 448.161 217.159 450.734 219.112 452.559L263.362 496.809C267.267 500.714 273.581 500.714 277.487 496.809L289.549 484.777C293.454 480.872 293.454 474.558 289.549 470.652L252.924 433.996L252.924 382.34C252.924 376.817 248.447 372.34 242.924 372.34L225.893 372.34Z" fill="#5ce68a" fill-rule="nonzero" opacity="1" stroke="#66cc99" stroke-linecap="round" stroke-linejoin="round" stroke-width="10"/>
</g>
<g opacity="1">
<path d="M80 249.816C74.4773 249.816 70 254.293 70 259.816L70 322.753C70 325.636 71.2666 328.209 73.2188 330.034L117.469 374.284C121.374 378.19 127.689 378.19 131.594 374.284L143.656 362.253C147.561 358.348 147.561 352.033 143.656 348.128L107.031 311.472L107.031 259.816C107.031 254.293 102.554 249.816 97.0312 249.816L80 249.816Z" fill="#5ce68a" fill-rule="nonzero" opacity="1" stroke="#66cc99" stroke-linecap="round" stroke-linejoin="round" stroke-width="10"/>
</g>
<g opacity="1">
<path d="M116.473 249.816C110.95 249.816 106.473 254.293 106.473 259.816L106.473 322.753C106.473 325.636 107.74 328.209 109.692 330.034L153.942 374.284C157.847 378.19 164.162 378.19 168.067 374.284L180.129 362.253C184.035 358.348 184.035 352.033 180.129 348.128L143.504 311.472L143.504 259.816C143.504 254.293 139.027 249.816 133.504 249.816L116.473 249.816Z" fill="#5ce68a" fill-rule="nonzero" opacity="1" stroke="#66cc99" stroke-linecap="round" stroke-linejoin="round" stroke-width="10"/>
</g>
<g opacity="1">
<path d="M152.946 249.816C147.424 249.816 142.946 254.293 142.946 259.816L142.946 322.753C142.946 325.636 144.213 328.209 146.165 330.034L190.415 374.284C194.32 378.19 200.635 378.19 204.54 374.284L216.603 362.253C220.508 358.348 220.508 352.033 216.603 348.128L179.978 311.472L179.978 259.816C179.978 254.293 175.5 249.816 169.978 249.816L152.946 249.816Z" fill="#5ce68a" fill-rule="nonzero" opacity="1" stroke="#66cc99" stroke-linecap="round" stroke-linejoin="round" stroke-width="10"/>
</g>
<g opacity="1">
<path d="M189.42 249.816C183.897 249.816 179.42 254.293 179.42 259.816L179.42 322.753C179.42 325.636 180.686 328.209 182.638 330.034L226.888 374.284C230.794 378.19 237.108 378.19 241.013 374.284L253.076 362.253C256.981 358.348 256.981 352.033 253.076 348.128L216.451 311.472L216.451 259.816C216.451 254.293 211.974 249.816 206.451 249.816L189.42 249.816Z" fill="#5ce68a" fill-rule="nonzero" opacity="1" stroke="#66cc99" stroke-linecap="round" stroke-linejoin="round" stroke-width="10"/>
</g>
<g opacity="1">
<path d="M116.473 188.554C110.95 188.554 106.473 193.031 106.473 198.554L106.473 261.491C106.473 264.374 107.74 266.947 109.692 268.772L153.942 313.022C157.847 316.927 164.162 316.928 168.067 313.022L180.129 300.991C184.035 297.086 184.035 290.771 180.129 286.866L143.504 250.21L143.504 198.554C143.504 193.031 139.027 188.554 133.504 188.554L116.473 188.554Z" fill="#5ce68a" fill-rule="nonzero" opacity="1" stroke="#66cc99" stroke-linecap="round" stroke-linejoin="round" stroke-width="10"/>
</g>
<g opacity="1">
<path d="M152.946 188.554C147.424 188.554 142.946 193.031 142.946 198.554L142.946 261.491C142.946 264.374 144.213 266.947 146.165 268.772L190.415 313.022C194.32 316.927 200.635 316.928 204.54 313.022L216.603 300.991C220.508 297.086 220.508 290.771 216.603 286.866L179.978 250.21L179.978 198.554C179.978 193.031 175.5 188.554 169.978 188.554L152.946 188.554Z" fill="#5ce68a" fill-rule="nonzero" opacity="1" stroke="#66cc99" stroke-linecap="round" stroke-linejoin="round" stroke-width="10"/>
</g>
</g>
<g opacity="1">
<path d="M317.946 236.925L321.929 240.908C328.339 247.318 326.159 259.89 317.061 268.989L162.431 423.619C153.332 432.717 140.76 434.897 134.35 428.487L130.367 424.504C123.957 418.094 126.137 405.522 135.236 396.423L289.865 241.794C298.964 232.695 311.536 230.515 317.946 236.925Z" fill="#e6735c" fill-rule="nonzero" opacity="1" stroke="none"/>
<path d="M254.653 173.563L258.636 177.546C265.046 183.956 262.866 196.528 253.767 205.627L99.1375 360.257C90.0389 369.355 77.4666 371.535 71.0566 365.125L67.074 361.142C60.664 354.732 62.8436 342.16 71.9423 333.061L226.572 178.432C235.671 169.333 248.243 167.153 254.653 173.563Z" fill="#e6735c" fill-rule="nonzero" opacity="1" stroke="none"/>
</g>
<g opacity="1">
<path d="M90.6322 501.909L370.287 501.909C386.856 501.909 400.287 515.34 400.287 531.909L400.287 931.097C400.287 947.665 386.856 961.097 370.287 961.097L90.6322 961.097C74.0637 961.097 60.6322 947.665 60.6322 931.097L60.6322 531.909C60.6322 515.34 74.0637 501.909 90.6322 501.909Z" fill="#66cc99" fill-rule="nonzero" opacity="1" stroke="none"/>
<path d="M60.6322 501.909L400.287 501.909L400.287 579.073L60.6322 579.073L60.6322 501.909Z" fill="#66cc99" fill-rule="nonzero" opacity="1" stroke="none"/>
</g>
<path d="M60.6322 352.053L210.632 502.053L60.6322 502.053L60.6322 352.053Z" fill="#ffb366" fill-rule="nonzero" opacity="1" stroke="none"/>
<path d="M400.287 226.346L125.807 500.827L400.287 500.827L400.287 226.346Z" fill="#ffb366" fill-rule="nonzero" opacity="1" stroke="none"/>
</g>
</g>
</svg>
