<?xml version="1.0" encoding="UTF-8" standalone="no"?>
<!DOCTYPE svg PUBLIC "-//W3C//DTD SVG 1.1//EN" "http://www.w3.org/Graphics/SVG/1.1/DTD/svg11.dtd">
<!-- Created with Vectornator (http://vectornator.io/) -->
<svg height="100%" stroke-miterlimit="10" style="fill-rule:nonzero;clip-rule:evenodd;stroke-linecap:round;stroke-linejoin:round;" version="1.1" viewBox="0 0 216.766 154.727" width="100%" xml:space="preserve" xmlns="http://www.w3.org/2000/svg" xmlns:xlink="http://www.w3.org/1999/xlink">
<defs>
<radialGradient cx="75.5584" cy="68.744" gradientTransform="matrix(1 0 0 1 0 0)" gradientUnits="userSpaceOnUse" id="RadialGradient" r="43.6009">
<stop offset="0" stop-color="#738079"/>
<stop offset="1" stop-color="#000000"/>
</radialGradient>
</defs>
<g id="レイヤー-1">
<path d="M105.816 5.04717C85.998 5.04717 69.9314 24.638 69.9314 48.8071C69.9313 56.4446 71.5377 63.6206 74.3578 69.8703C73.9361 70.3798 73.5485 70.929 73.1478 71.4634C66.5708 62.3245 56.9504 56.5205 46.1962 56.5205C26.3775 56.5205 10.311 76.1214 10.311 100.29C10.311 124.46 26.3775 144.05 46.1962 144.05C56.6868 144.05 66.0922 138.525 72.6537 129.773C79.2308 138.916 88.8486 144.716 99.6054 144.716C110.095 144.716 119.512 139.199 126.073 130.448C132.65 139.586 142.271 145.381 153.025 145.381C172.843 145.381 188.91 125.79 188.91 101.621C188.91 97.576 188.421 93.674 187.579 89.9555C198.713 82.526 206.263 68.1186 206.263 51.5496C206.263 27.3805 190.206 7.78972 170.388 7.78972C156.608 7.78973 144.649 17.2664 138.636 31.1619C133.071 15.7859 120.484 5.04717 105.816 5.04717Z" fill="url(#RadialGradient)" fill-rule="nonzero" opacity="1" stroke="none"/>
</g>
</svg>
