<?xml version="1.0" encoding="UTF-8" standalone="no"?>
<!DOCTYPE svg PUBLIC "-//W3C//DTD SVG 1.1//EN" "http://www.w3.org/Graphics/SVG/1.1/DTD/svg11.dtd">
<!-- Created with Vectornator (http://vectornator.io/) -->
<svg height="100%" stroke-miterlimit="10" style="fill-rule:nonzero;clip-rule:evenodd;stroke-linecap:round;stroke-linejoin:round;" version="1.1" viewBox="0 0 306.058 152.89" width="100%" xml:space="preserve" xmlns="http://www.w3.org/2000/svg" xmlns:xlink="http://www.w3.org/1999/xlink">
<defs>
<radialGradient cx="142.537" cy="64.2569" gradientTransform="matrix(1 0 0 1 0 0)" gradientUnits="userSpaceOnUse" id="RadialGradient" r="96.673">
<stop offset="0" stop-color="#738079"/>
<stop offset="1" stop-color="#000000"/>
</radialGradient>
</defs>
<g id="Clouds">
<path d="M66.4847 6.85849C46.6661 6.85849 30.5996 26.4493 30.5996 50.6184C30.5996 54.6672 31.0867 58.5629 31.9305 62.2843C20.7964 69.7137 13.2368 84.1211 13.2368 100.69C13.2368 124.859 29.3033 144.45 49.1219 144.45C59.6102 144.45 69.0182 138.932 75.5795 130.183C82.1565 139.322 91.787 145.126 102.541 145.126C113.031 145.126 122.437 139.599 128.999 130.848C135.576 139.987 145.196 145.791 155.951 145.791C166.438 145.791 175.847 140.271 182.408 131.524C188.985 140.663 198.606 146.457 209.36 146.457C219.849 146.457 229.266 140.94 235.827 132.189C242.404 141.327 252.025 147.122 262.779 147.122C282.598 147.122 298.664 127.531 298.664 103.362C298.664 79.1931 282.598 59.6023 262.779 59.6023C262.551 59.6023 262.33 59.6374 262.104 59.6426C262.408 57.3499 262.608 55.0122 262.608 52.6148C262.608 28.4457 246.541 8.85491 226.723 8.85491C216.232 8.85492 206.826 14.3799 200.265 23.1323C193.688 13.9896 184.07 8.18944 173.313 8.18944C153.495 8.18943 137.428 27.7802 137.428 51.9493C137.428 55.9947 137.917 59.8967 138.759 63.6153C135.271 65.9427 132.156 68.9881 129.493 72.5387C122.916 63.3986 113.296 57.5958 102.541 57.5958C102.31 57.5958 102.086 57.6308 101.856 57.6361C102.159 55.3447 102.37 53.0144 102.37 50.6184C102.37 26.4493 86.3034 6.85849 66.4847 6.85849Z" fill="url(#RadialGradient)" fill-rule="nonzero" opacity="1" stroke="none"/>
</g>
</svg>
